<svg width="111" height="158" viewBox="0 0 111 158" fill="none" xmlns="http://www.w3.org/2000/svg">
<path fill-rule="evenodd" clip-rule="evenodd" d="M3.52633 0.338237C7.83719 0.257548 52.6427 17.4646 62.8323 23.1789C78.0072 31.689 91.1343 44.3225 97.7687 56.8018C103.047 66.7296 104.564 77.3478 101.889 85.6287C100.343 90.4136 98.8586 92.7537 94.9036 96.6444L91.4886 100.003L93.4239 103.939C99.846 117.001 102.867 132.731 101.392 145.43C101.167 147.364 101.103 148.945 101.25 148.942C101.397 148.939 102.912 146.035 104.616 142.489C106.32 138.942 108.03 135.892 108.416 135.71C109.714 135.098 110.498 136.545 109.923 138.491C108.839 142.158 102.374 155.288 100.87 156.875C99.6782 158.133 99.163 158.034 97.1896 156.167C95.9905 155.032 94.9732 153.127 92.7991 147.945C89.2682 139.529 88.8217 138.059 89.558 137.277C90.0613 136.742 90.2916 136.851 91.2039 138.052C91.7878 138.82 93.2999 141.528 94.5647 144.068C95.8296 146.609 96.9664 148.689 97.0906 148.691C97.5397 148.697 97.7143 140.449 97.3633 135.822C96.7026 127.115 95.2464 120.197 92.526 112.839C91.0392 108.819 87.97 101.985 87.6761 102.042C87.5882 102.059 86.3617 102.6 84.9509 103.246C80.092 105.467 72.0574 106.976 65.4561 106.905C46.7378 106.705 28.3591 95.6729 25.5706 82.9641C25.2117 81.3283 25.25 79.3592 25.6753 77.5902C26.2625 75.1479 26.6407 74.4898 28.6966 72.3281C32.1135 68.7355 35.8509 67.4481 43.2204 67.3246C51.4815 67.1854 59.3383 69.4332 67.5354 74.28C71.9945 76.9164 83.0163 87.3283 86.6395 92.3266C87.994 94.195 89.262 95.7203 89.4579 95.7168C89.6536 95.713 90.8913 94.6832 92.2082 93.429C96.4149 89.4217 98.6155 84.4304 98.9135 78.2212C99.7504 60.7589 84.5652 40.0231 61.2589 26.803C53.2437 22.2562 8.40833 3.89202 3.15754 2.93865C1.35891 2.61218 0.718248 2.30449 0.644986 1.73152C0.497009 0.571695 0.87761 0.387463 3.52633 0.338237ZM29.5876 76.4411C26.7489 81.8461 30.8071 89.1999 39.9919 95.2946C48.2713 100.788 57.3025 103.137 68.0826 102.599C74.0975 102.299 79.2524 101.257 82.984 99.5862C86.1389 98.174 86.2229 98.6376 81.7415 92.7666C78.0154 87.8849 69.7495 79.8708 66.2022 77.7002C61.9484 75.0974 56.9486 72.8637 52.409 71.537C45.0652 69.3914 36.4724 70.1746 32.4275 73.3582C31.5339 74.0616 30.7134 74.6933 30.6037 74.7615C30.4942 74.83 30.0368 75.5859 29.5876 76.4411Z" fill="#B1B4F1"/>
</svg>
