<svg width="257" height="256" viewBox="0 0 257 256" fill="none" xmlns="http://www.w3.org/2000/svg">
<path d="M46.6855 156.078C44.9396 157.948 47.0593 159.444 48.0577 158.198C50.8007 154.706 55.195 154.424 57.2852 156.452C58.171 157.311 59.1553 156.826 58.9057 155.703C58.1582 153.216 52.0474 150.341 46.6855 156.078Z" fill="#565ADD"/>
<path d="M46.561 147.225C44.44 143.733 40.824 137.997 36.961 138.869C24.9904 141.488 13.7674 158.946 16.76 158.572C17.8813 158.444 22.1219 151.963 27.4839 147.099C30.7261 144.232 35.3405 141.863 37.4602 141.987C39.5799 142.236 43.6951 146.979 45.5651 149.594C47.3085 152.213 48.6794 150.716 46.561 147.225Z" fill="#565ADD"/>
<path d="M37.5818 124.528C41.697 126.898 43.1933 126.524 47.0538 124.03C53.6624 119.79 63.3008 111.087 64.7613 109.066C66.8118 106.24 65.2682 88.3657 62.3971 85.2476C59.6541 82.3792 40.6998 84.7484 38.0771 86.9923C35.2086 89.3628 24.111 109.938 25.3578 113.679C26.3562 116.423 32.8432 121.785 37.5818 124.528ZM58.4074 88.3657C61.7738 89.6124 60.0278 95.2239 56.7856 94.1027C53.1696 92.9801 54.6659 86.8694 58.4074 88.3657Z" fill="#565ADD"/>
<path d="M76.1136 148.351C72.787 148.631 69.7005 150.196 67.5094 152.715C66.5123 153.962 67.3814 155.334 68.632 154.337C74.7414 149.473 79.2317 149.972 84.0944 154.081C85.0915 154.954 86.1129 153.697 85.0915 152.211C84.08 150.82 82.7124 149.727 81.1325 149.048C79.5525 148.369 77.8188 148.128 76.1136 148.351Z" fill="#565ADD"/>
<path d="M47.5583 170.169C42.3206 167.55 34.5894 163.684 30.35 165.433C26.4844 167.053 22.6188 185.883 24.8639 185.634C25.486 185.634 25.7356 185.384 25.861 184.761C26.2348 181.394 29.6012 168.425 31.7209 167.678C34.7135 166.679 45.2889 171.228 48.5554 172.79C49.9084 173.44 50.5484 171.541 47.5583 170.169Z" fill="#565ADD"/>
<path d="M77.7348 122.908C75.2401 121.287 64.5163 119.167 43.0686 131.637C42.1923 131.142 41.2744 130.725 40.3256 130.39C32.7185 128.021 20.7416 138.869 15.011 145.603C4.20523 157.921 3.28107 164.448 17.8782 172.038C15.1352 181.638 12.8862 189.498 16.6315 194.235C18.627 196.73 25.2369 198.725 29.3508 198.226C31.8456 197.976 31.2222 195.731 29.1025 195.607C24.1105 195.351 19.0008 192.863 18.7524 192.365C14.6372 189.123 24.4881 159.195 29.3508 158.072C32.0952 157.199 41.5723 161.315 54.7896 167.672C56.6596 168.544 59.7816 167.672 52.794 163.931C39.3272 156.698 31.3464 153.581 27.98 154.579C24.1144 155.826 20.3729 164.429 18.7524 168.915C14.138 166.422 10.8958 163.803 9.77323 161.184C9.02571 159.562 11.2696 154.2 17.2561 147.466C24.4881 139.361 29.9755 135.246 34.4644 133.875C37.2075 133.002 41.5723 132.004 51.9224 142.853C56.2859 147.461 60.2769 153.951 64.0171 160.685C64.6417 161.807 67.2593 161.807 66.2622 159.688C60.6507 148.096 52.5444 137.997 45.8116 133.383C65.763 122.159 74.243 124.653 75.7393 125.651C80.6033 128.894 89.7054 153.583 90.7038 155.953C91.2017 157.199 93.8206 158.072 93.3214 156.081C91.5755 149.594 80.7275 124.903 77.7348 122.908Z" fill="#565ADD"/>
<path d="M239.968 174.533C239.718 175.28 238.971 178.523 238.721 179.269C236.088 174.261 232.771 169.644 228.865 165.551C228.201 164.789 227.337 164.228 226.372 163.931C226.995 162.56 228.367 158.818 227.992 157.572C227.618 156.573 226.122 156.573 225.249 158.694C224.126 161.312 222.63 166.176 213.776 176.276C204.048 187.25 188.589 194.357 176.742 194.482C174.747 194.482 176.614 197.1 178.612 197.1C186.468 196.972 194.948 194.108 202.676 189.244C203.923 194.731 210.407 203.086 214.523 205.954C208.102 209.445 201.078 211.687 193.822 212.563C191.955 212.727 194.072 214.932 195.942 214.932C215.685 213.088 237.444 199.09 241.334 179.643C242.461 174.657 240.466 173.036 239.968 174.533ZM236.352 184.883C233.799 192.679 225.752 200.594 218.644 203.712C214.653 205.458 207.92 194.734 205.925 189.995C205.677 189.405 205.641 188.748 205.822 188.134C206.004 187.52 206.393 186.988 206.922 186.629C213.65 181.809 219.404 175.759 223.881 168.797C224.041 168.542 224.256 168.327 224.51 168.166C224.765 168.004 225.052 167.902 225.35 167.866C225.649 167.83 225.952 167.862 226.237 167.958C226.523 168.054 226.783 168.213 226.999 168.422C230.491 171.914 234.855 179.645 235.728 180.768C237.099 181.888 236.756 183.645 236.352 184.883Z" fill="#565ADD"/>
<path d="M206.174 206.457C204.209 204.553 200.265 198.434 198.443 195.232C198.375 195.087 198.278 194.958 198.158 194.853C198.037 194.748 197.896 194.67 197.743 194.623C197.59 194.576 197.429 194.562 197.27 194.581C197.112 194.6 196.959 194.652 196.821 194.734C194.202 195.732 202.309 206.581 205.551 208.7C206.424 209.2 207.188 207.437 206.174 206.457Z" fill="#565ADD"/>
<path d="M71.3755 131.762C74.7585 132.436 76.6631 137.657 78.4833 141.49C78.843 142.245 80.3547 141.865 80.2292 140.992C79.4804 137.251 77.1111 133.759 75.4932 131.392C72.1268 126.784 62.7739 130.395 59.0324 132.515C55.9156 134.385 55.1425 136.704 57.9111 135.383C60.6286 134.08 67.154 130.92 71.3755 131.762Z" fill="#565ADD"/>
<path d="M221.014 183.387C218.87 183.047 216.698 182.922 214.529 183.012C213.158 183.14 213.033 184.509 214.273 184.883C216.165 185.294 218.081 185.585 220.009 185.756C220.009 186.285 220.147 186.805 220.41 187.264C220.672 187.723 221.05 188.106 221.505 188.375C220.583 190.782 219.793 193.238 219.137 195.731C218.638 198.226 220.633 198.35 221.505 196.48C222.753 193.362 223.003 191.991 224.124 188.623C224.659 188.514 225.158 188.273 225.576 187.922C225.993 187.57 226.316 187.119 226.515 186.611C226.713 186.102 226.781 185.552 226.712 185.01C226.643 184.469 226.439 183.953 226.12 183.511C225.129 181.888 221.887 181.515 221.014 183.387Z" fill="#565ADD"/>
<path d="M180.735 66.6684C182.357 62.1794 179.114 55.3212 172.63 52.7023C172.63 47.0908 164.774 31.8767 148.566 39.7333C144.076 27.6373 128.863 21.7762 121.132 31.1292C106.043 19.2828 92.3321 25.6431 87.8381 40.4821C71.6269 31.0101 53.7901 44.4719 58.16 58.1896C48.0569 62.0552 47.184 76.1455 55.5398 79.8869C59.28 81.6316 65.6403 80.0149 68.2592 71.5311C77.4867 76.893 100.806 81.1311 111.907 63.4261C121.379 68.2901 136.473 64.9225 143.455 59.4364C151.562 67.6655 161.662 64.4284 167.272 61.556C164.774 70.6556 179.364 70.4085 180.735 66.6684Z" fill="#565ADD"/>
<path d="M112.899 56.3198C109.533 68.4158 96.6892 74.0273 87.0867 74.1515C78.2329 74.1515 69.1308 71.0347 63.5193 63.6772C62.023 61.6817 60.5267 66.1707 65.5136 70.0363C64.8828 71.6896 64.0891 73.2761 63.1443 74.7723C61.8976 76.7678 65.639 76.2699 68.2579 71.9038C84.3385 82.1028 104.065 77.0238 112.276 65.2952C120.756 69.2862 135.844 67.7899 142.329 61.18C148.688 66.6673 158.664 68.0395 165.771 63.6747C166.27 64.9214 167.642 67.5403 169.388 67.5403C170.635 67.5403 167.892 65.9198 168.515 60.8062C168.889 58.0632 167.517 56.9406 165.771 59.4353C162.031 64.9214 150.06 64.0433 144.449 59.1793C146.942 55.4379 145.32 52.3198 144.577 53.8161C139.841 62.7953 125.872 66.6609 113.901 62.5457C115.642 56.9419 113.524 54.1988 112.899 56.3198Z" fill="black"/>
<path d="M118.637 147.099C141.081 147.473 151.805 138.245 152.685 131.137C153.683 123.781 152.187 118.294 146.201 116.922C137.721 114.927 131.361 123.156 120.763 123.156C112.158 123.156 100.686 118.548 95.1985 121.66C89.2132 125.028 91.5825 133.009 92.9546 135.627C95.8167 140.989 103.049 146.849 118.637 147.099ZM95.0679 128.394C94.8183 124.778 97.4372 123.282 100.554 124.031C115.518 127.147 124.618 128.394 137.59 121.66C145.696 117.421 148.564 121.532 148.813 123.905C146.942 126.898 139.461 129.517 142.827 130.514C143.7 130.77 147.442 130.016 149.935 127.896C148.938 137.368 135.096 143.359 121.878 143.732C101.053 144.356 95.4417 134.879 95.0679 132.136C99.3073 133.882 102.176 134.255 103.424 132.635C104.421 131.387 98.8042 130.888 95.0679 128.394Z" fill="black"/>
<path d="M36.3403 103.081C37.7124 106.074 40.4555 106.323 42.8247 106.571C43.6866 109.501 44.7271 112.375 45.9403 115.177C45.0982 115.301 44.2386 115.219 43.4357 114.936C42.6328 114.653 41.9108 114.179 41.3323 113.555C40.8331 113.056 39.8244 113.051 39.5863 113.555C39.0615 114.666 41.5819 118.669 46.8183 117.421C47.3175 118.669 47.4417 119.291 47.9409 119.54C48.938 119.668 50.186 118.793 49.3131 116.424C52.4298 114.554 54.1771 110.687 52.1803 107.444C50.4203 104.576 47.5582 104.448 44.8139 104.328C44.6859 104.078 42.9451 98.4665 42.3204 96.4722C46.186 95.4738 46.4356 98.3423 48.1815 97.4693C48.6795 97.2197 48.8215 96.7116 48.4375 96.0972C46.9937 93.8188 43.8295 93.6037 41.5793 94.2271C41.0801 93.23 40.7063 92.1074 39.5838 92.1074C38.9604 92.1074 38.3371 92.6053 38.5854 93.23C38.7496 93.9237 39.0012 94.5938 39.3342 95.2242C36.5847 96.846 34.8388 99.9679 36.3403 103.081ZM49.9326 108.817C50.4257 109.71 50.5451 110.763 50.2647 111.744C49.9844 112.725 49.327 113.556 48.4363 114.054C47.5633 111.685 46.3153 108.934 45.4436 106.697C47.059 106.946 48.9291 107.196 49.9275 108.817H49.9326ZM39.9563 97.5935C40.5796 99.4649 41.3284 101.585 41.9518 103.953C41.2403 103.987 40.5338 103.817 39.9153 103.464C39.2968 103.111 38.7919 102.589 38.4599 101.958C38.1306 101.174 38.1005 100.297 38.3754 99.4923C38.6503 98.6877 39.211 98.012 39.9511 97.5935H39.9563Z" fill="black"/>
<path d="M58.4078 88.3653C54.5422 86.869 53.17 92.9797 56.786 94.1023C60.0282 95.2236 61.7742 89.7375 58.4078 88.3653Z" fill="black"/>
<path d="M232.361 153.833C232.037 153.564 231.786 153.217 231.634 152.824C231.481 152.431 231.431 152.006 231.488 151.588C233.609 137.372 221.512 115.425 204.305 122.16C203.712 121.584 203.087 121.042 202.433 120.538C203.201 119.614 203.793 118.558 204.179 117.421C212.909 118.418 211.162 104.951 204.928 97.0958C210.04 93.1048 210.165 79.7621 203.057 74.5243C205.052 62.4296 196.199 46.8418 181.733 45.8446C180.362 32.7515 165.024 23.0248 151.681 26.7649C137.089 11.6776 92.699 4.56847 77.3608 27.2641C62.3976 22.4001 40.9486 33.499 40.4507 51.2066C34.3894 54.906 29.7372 60.5236 27.2321 67.1681C22.9928 77.892 27.2552 91.0363 29.2277 90.1122C29.9854 89.7576 29.851 88.9896 29.6014 87.7429C27.7178 81.4646 27.9142 74.7457 30.1615 68.5882C32.4087 62.4308 36.5863 57.1648 42.0712 53.5758C42.4648 53.2821 42.791 52.9075 43.0276 52.4772C43.2643 52.0469 43.4061 51.5708 43.4433 51.0811C43.7557 33.9893 70.2529 22.4014 82.2273 33.6245C83.7237 34.9953 84.5966 31.629 80.3573 28.5109C98.0635 6.93775 136.97 17.1637 150.063 28.5109C150.523 28.9005 151.064 29.1813 151.647 29.3325C152.23 29.4836 152.839 29.5012 153.43 29.3838C165.027 26.7649 178.869 36.7413 178.619 47.2155C178.634 47.5999 178.777 47.9682 179.026 48.262C179.274 48.5558 179.613 48.7583 179.99 48.8373C196.95 50.7074 200.44 63.9246 199.817 74.2747C199.782 74.8583 199.917 75.4395 200.205 75.9483C200.492 76.4572 200.921 76.8722 201.439 77.1432C206.431 80.7592 205.928 92.2318 203.185 94.9749C178.993 67.1681 180.615 68.6645 132.48 75.9029C125.248 77.0254 127.488 81.8881 122.752 82.8866C117.389 84.0091 116.286 83.7173 114.646 83.0146C110.944 81.4222 112.652 77.403 104.046 78.2785C96.0654 79.1515 65.6462 80.2741 59.2795 84.2638C60.3009 84.3665 61.2836 84.7085 62.148 85.2622C64.74 87.8542 66.3169 102.294 65.1406 107.707C65.0099 108.645 64.5181 109.495 63.7697 110.076C71.0017 122.298 102.799 118.431 107.538 107.084C107.666 111.698 111.529 115.438 116.766 116.311C123.5 117.434 130.68 112.954 130.234 110.202C130.092 109.331 129.361 108.954 128.114 110.074C124.622 113.192 118.012 113.566 113.898 111.196C110.904 109.45 110.157 105.585 111.903 100.598C113.523 96.1077 118.511 88.7502 127.116 94.3618C131.231 96.9806 133.724 105.086 139.959 109.082C146.943 113.571 162.531 111.077 169.143 108.085C174.755 105.59 177 88.3816 177 88.3816C185.604 90.6267 189.594 88.2536 194.582 92.3714C203.31 99.4805 206.053 111.451 200.069 118.559C176.005 99.8542 161.541 115.566 173.882 137.014C165.402 143.374 160.789 151.35 159.29 159.959C142.705 167.69 118.389 169.431 101.306 163.949C82.8507 151.603 62.1505 163.2 53.0497 178.669C52.7531 179.063 52.3439 179.357 51.8762 179.513C51.4085 179.669 50.9044 179.679 50.4309 179.542C41.4529 177.546 35.9669 181.162 33.5976 186.524C32.4874 189.346 32.1446 192.412 32.6039 195.409C33.0632 198.406 34.3084 201.228 36.2126 203.588C34.4667 209.448 27.2334 221.045 24.74 227.155C23.1182 231.021 26.4859 230.398 28.6056 226.657C32.6412 219.9 36.2638 212.904 39.4536 205.708C55.5406 214.561 89.8305 231.395 110.531 228.403C104.795 240 102.052 244.114 105.293 243.123C108.534 242.133 115.768 226.039 119.26 217.311C126.368 200.103 127.615 182.894 109.034 168.927C126.618 171.296 142.08 170.423 158.915 163.565C156.918 192.868 188.343 228.657 218.021 227.909C258.421 226.782 257.676 179.396 232.361 153.833ZM82.9723 109.939C80.9768 110.313 78.8571 108.443 70.8763 100.836C67.8837 97.9688 71.3755 96.5966 75.2411 100.088C83.2219 107.196 84.5966 109.696 82.9723 109.939ZM90.5793 106.323C86.4641 102.582 77.3608 94.2274 73.9944 90.4859C70.628 86.7445 74.2504 86.6203 77.7358 89.613C82.0993 93.4786 89.083 99.7134 93.1982 104.077C96.5646 107.82 95.3179 110.812 90.5793 106.323ZM87.3371 89.8626C83.7211 86.3707 85.467 84.5006 88.9576 87.2437C92.4494 90.1121 99.5573 94.9749 99.9323 98.5922C100.307 102.209 90.9531 93.4786 87.3371 89.8626ZM147.445 103.205C144.716 103.888 138.092 97.0958 135.848 94.6011C134.102 92.6056 134.102 88.2421 138.092 91.9822C146.07 99.2155 150.2 102.515 147.445 103.205ZM161.909 100.961C160.288 101.335 159.041 100.705 153.804 96.7208C149.555 93.4831 145.476 90.0285 141.584 86.3707C138.217 83.0043 139.838 80.1371 142.332 82.1314C162.904 98.7163 163.528 100.588 161.909 100.961ZM165.276 92.8565C162.408 92.4814 157.046 87.6187 153.555 84.7502C150.188 81.8818 151.061 78.3899 154.926 81.6322C158.792 84.8744 169.763 93.3544 165.274 92.8565H165.276ZM109.66 173.535C102.179 178.897 97.4401 187.377 99.8043 187.871C102.168 188.365 105.915 180.264 112.399 176.024C126.49 190.36 120.629 207.199 112.271 225.031C95.9361 228.522 68.2536 219.045 40.5697 202.46C37.4529 200.589 33.9611 193.732 36.4558 187.74C40.9435 177.016 52.1665 186.869 55.7838 181.008C61.6437 171.152 76.2344 158.811 90.948 162.926C83.716 166.666 75.9848 178.389 80.8475 177.64C82.843 177.39 86.3349 170.034 94.939 164.297C100.275 166.631 105.236 169.744 109.658 173.535H109.66ZM209.42 224.163C196.95 220.92 181.612 210.944 168.892 191.242C166.449 186.941 164.603 182.326 163.405 177.526C161.036 168.298 161.535 159.818 164.527 153.833C170.015 153.705 176.124 158.448 177.87 159.944C179.616 161.44 180.864 159.071 179.742 157.699C177.621 155.08 170.638 151.464 166.273 150.84C169.018 144.979 173.008 140.74 176.374 139.991C179.99 139.244 185.104 142.734 189.966 145.978C191.836 147.224 192.676 144.515 191.214 142.985C188.526 140.177 180.739 136.126 176.878 135.876C173.878 131.512 167.643 114.56 181.365 114.304C188.223 114.304 197.576 119.542 209.92 131.638C210.545 132.261 211.792 131.766 211.667 130.889C211.418 128.769 209.671 126.775 206.931 124.654C222.519 121.164 228.878 140.11 228.63 152.214C228.602 152.993 228.731 153.77 229.009 154.498C229.288 155.227 229.71 155.891 230.25 156.453C265.526 193.161 242.462 232.393 209.417 224.163H209.42Z" fill="black"/>
</svg>
