<svg width="257" height="256" viewBox="0 0 257 256" fill="none" xmlns="http://www.w3.org/2000/svg">
<path d="M231.105 130.381C216.948 104.295 209.051 117.082 196.66 129.293C196.66 129.28 215.272 122.01 231.105 130.381Z" fill="#565ADD"/>
<path d="M100.405 151.194C102.517 145.088 104.552 136.576 106.011 134.682C97.9346 182.042 122.498 179.981 159.195 181.21C153.167 163.469 170.715 150.49 181.979 136.116C178.562 139.354 113.717 140.071 112.117 121.268C105.986 123.008 97.781 118.464 97.781 118.464C97.781 118.464 83.125 124.455 77.5186 134.4C86.0764 138.607 93.8242 144.293 100.405 151.194Z" fill="#565ADD"/>
<path d="M162.753 189.185L162.908 189.404C162.908 189.34 162.856 189.262 162.753 189.185Z" fill="#565ADD"/>
<path d="M212.699 185.6C206.913 202.38 170.561 200.025 162.907 189.44C162.805 191.5 106.971 184.627 109.595 182.604C105.064 186.035 97.3453 206.08 95.3101 215.27C92.7501 225.868 110.67 223.347 118.721 227.315C160.36 243.174 151.873 202.137 163.048 210.099C167.528 213.44 166.709 230.886 175.95 229.619C191.848 226.918 228.673 229.363 216.91 202.368C214.952 195.737 212.699 185.6 212.699 185.6Z" fill="#565ADD"/>
<path d="M130.049 115.866C135.169 118.081 143.591 116.25 147.969 112.116C149.741 110.371 150.789 108.022 150.905 105.538C151.022 103.054 150.197 100.617 148.596 98.7141C144.231 93.3125 136.078 93.9141 130.779 96.4357C122.215 100.519 121.486 112.116 130.049 115.866ZM133.787 98.7781C138.83 96.8837 144.155 97.9589 146.587 101.556C140.268 103.516 134.36 106.613 129.153 110.695C125.518 106.919 127.822 101.018 133.787 98.7781Z" fill="black"/>
<path d="M249.383 237.62C248.564 234.701 245.901 231.22 235.61 224.192C229.21 210.676 226.868 191.488 221.991 177.076C258.151 156.89 255.092 126.183 224.231 105.063C224.103 70.2852 202.087 35.0212 142.196 43.6228C106.292 48.6404 79.8599 64.8836 88.2439 108.916C62.6439 121.536 42.9703 159.54 79.2839 174.644C74.1639 183.604 77.9399 195.021 88.9863 199.565C82.1639 212.954 84.3271 216.282 79.6807 225.063C67.9431 231.821 63.3479 236.032 63.4247 241.562C63.5911 252.48 92.1735 249.165 109.94 249.088C138.817 248.948 146.727 252.199 150.298 239.232C151.77 233.92 156.558 221.696 159.156 212.557C159.31 212.045 159.847 210.778 160.295 212.442C162.855 221.876 158.58 245.901 167.335 248.692C171.367 249.524 184.833 248.692 200.615 248.32C207.309 248.167 215.591 248.564 221.837 248.487C228.583 248.397 236.365 248.128 240.039 248.128C249.332 248.128 250.727 242.407 249.383 237.62ZM222.222 172.8C220.249 173.983 218.233 175.093 216.18 176.128C214.877 170.208 211.699 164.866 207.118 160.896C210.11 158.892 212.388 155.987 213.62 152.602C216.424 155.15 218.645 158.274 220.13 161.76C221.614 165.247 222.328 169.013 222.222 172.8ZM196.199 195.559C187.342 197.812 173.786 197.773 174.17 185.319C174.17 184.85 173.984 184.401 173.653 184.07C173.322 183.738 172.872 183.552 172.404 183.552C168.692 184.525 171.508 189.952 172.404 192.832C151.924 183.232 160.103 157.709 176.82 146.279C176.385 158.503 191.898 166.874 203.533 162.701C216.014 172.199 216.602 187.136 200.103 194.151C198.017 193.101 194.446 188.442 193.946 185.959C193.854 185.498 193.582 185.092 193.191 184.831C192.8 184.569 192.321 184.473 191.86 184.564C187.943 186.791 193.549 192.576 196.199 195.572V195.559ZM205.3 149.76C198.247 155.456 182.695 151.975 180.98 143.36C180.11 138.24 190.362 133.453 195.713 133.556C205.223 133.504 215.041 142.413 205.3 149.76ZM207.86 156.634C203.086 161.076 194.42 161.754 188.276 158.669C186.51 157.799 186.33 153.703 188.276 154.266C193.716 155.917 200.897 155.764 205.71 153.076C207.182 152.32 209.14 155.52 207.86 156.685V156.634ZM225.78 170.522C225.332 160.551 219.482 152.269 214.644 148.852C214.746 135.936 208.167 133.312 199.962 130.471C219.06 124.493 241.396 131.175 243.956 147.495C241.997 155.994 235.828 163.84 225.78 170.573V170.522ZM207.86 119.232C212.097 118.221 220.058 114.036 223.13 108.519C235.316 116.596 243.124 127.578 244.481 138.368C235.406 127.552 221.812 122.522 203.854 125.786C205.598 123.88 206.959 121.654 207.86 119.232ZM118.017 106.548C115.918 67.2772 134.516 85.1972 161.332 81.3188C177.332 79.002 170.574 66.2916 185.447 71.0788C197.287 75.5204 209.332 100.288 204.02 117.261C199.822 130.522 180.622 134.183 174.58 135.04C151.54 138.279 118.26 134.285 114.215 122.317C118.26 120.666 117.838 114.983 118.017 106.548ZM89.4471 112.768C92.3655 120.09 103.13 123.828 110.606 123.008C116.122 140.237 159.898 141.863 179.073 137.856C178.352 138.935 177.812 140.124 177.473 141.376C161.114 152.32 150.26 171.52 160.705 187.712C142.544 188.772 124.388 185.568 107.687 178.356C96.3719 173.44 104.372 142.631 107.278 133.172C107.356 132.951 107.389 132.716 107.373 132.483C107.357 132.249 107.293 132.021 107.185 131.813C107.077 131.605 106.927 131.422 106.744 131.275C106.562 131.127 106.351 131.019 106.126 130.957C102.913 130.266 101.198 138.893 99.9943 148.096C92.8903 136.96 77.2103 131.866 68.8903 131.213C75.0087 121.6 84.0583 114.612 89.4471 112.768ZM80.4871 184.346C80.1614 182.892 80.1889 181.381 80.5676 179.94C80.9462 178.499 81.6648 177.17 82.6631 176.064C85.1311 177.132 87.7055 177.935 90.3431 178.458C93.5559 179.047 94.0807 175.642 92.0711 175.36C78.6439 173.005 68.6727 165.888 64.7559 157.146C61.6711 150.285 62.5415 142.49 66.9319 134.695C74.0487 134.528 94.2599 140.48 99.0471 154.151C97.8951 163.085 98.2322 169.912 100.058 174.631C95.1559 184.423 94.2727 188.032 90.4839 196.57C87.9115 195.55 85.6427 193.889 83.893 191.745C82.1434 189.601 80.9709 187.045 80.4871 184.32V184.346ZM137.665 246.106C129.588 247.028 121.383 245.479 112.142 245.645C98.2663 245.876 84.2119 246.567 76.8263 245.338C68.5191 243.956 65.9207 242.65 67.8663 238.26C69.6327 234.343 80.0135 229.223 82.6375 226.432C98.2151 231.642 129.268 238.464 146.382 239.936C145.37 244.032 142.58 245.53 137.665 246.106ZM159.975 207.156C156.276 207.975 155.214 213.952 153.102 220.557C151.694 224.986 148.596 231.949 147.38 236.66C138.804 235.38 127.207 234.292 114.42 231.36C103.95 228.98 92.3015 226.432 84.3783 223.309C87.5655 208.576 96.1671 195.149 102.17 180.032C120.346 189.21 143.13 191.77 163.61 191.066C177.69 206.004 213.53 201.703 216.359 179.994L218.804 178.714C222.516 190.605 227.085 213.466 231.092 223.053C214.9 231.168 182.286 232.013 165.287 236.826C165.031 233.6 165.94 205.812 159.975 207.156ZM238.439 244.89C226.919 243.968 191.079 245.082 171.969 245.556C165.838 245.709 164.033 240.884 165.825 240.436C184.577 235.188 212.698 235.188 232.73 226.356C241.178 232.448 243.252 234.573 245.837 237.709C247.706 239.872 245.479 244.89 238.439 244.89Z" fill="black"/>
<path d="M205.889 141.492L199.412 139.764C198.132 135.565 188.289 138.317 191.732 142.938C191.233 144.32 189.287 147.034 191.463 148.058C193.639 149.082 194.279 145.856 194.919 144.551C195.556 144.585 196.193 144.489 196.792 144.269C197.39 144.049 197.938 143.709 198.401 143.271L204.955 145.012C205.421 145.136 205.918 145.069 206.336 144.826C206.754 144.584 207.058 144.186 207.182 143.719C207.306 143.252 207.239 142.755 206.997 142.337C206.754 141.92 206.356 141.616 205.889 141.492Z" fill="black"/>
<path d="M180.264 89.152C171.867 93.0944 171.163 104.32 179.535 107.955C184.475 110.093 192.77 108.326 197.071 104.32C198.805 102.643 199.834 100.368 199.948 97.9586C200.062 95.5491 199.253 93.1868 197.685 91.3536C193.423 86.1312 185.435 86.7072 180.264 89.152ZM195.624 94.1056C189.457 95.9991 183.684 98.9959 178.587 102.95C175.08 99.2896 177.307 93.5808 183.17 91.4304C188.111 89.6 193.307 90.624 195.637 94.1056H195.624Z" fill="black"/>
<path d="M170.292 115.354C172.136 113.626 170.728 111.194 168.859 111.937C164.103 114.341 158.826 115.529 153.499 115.393C153.263 115.401 153.033 115.459 152.821 115.562C152.609 115.665 152.42 115.81 152.267 115.989C152.115 116.169 152.001 116.378 151.933 116.603C151.865 116.829 151.845 117.066 151.873 117.3C152.667 122.061 168.18 117.389 170.292 115.354Z" fill="black"/>
<path d="M128.334 93.5939C130.753 94.3235 135.387 90.9571 140.033 91.6739C140.491 91.7665 140.966 91.6782 141.36 91.4276C141.754 91.177 142.035 90.7836 142.145 90.3299C142.9 87.2195 135.464 87.6803 130.766 89.2931C127.028 90.5859 125.441 92.7235 128.334 93.5939Z" fill="black"/>
<path d="M158.951 107.648C159.566 105.651 161.281 103.501 163.367 103.309C165.454 103.117 166.043 103.872 166.708 105.395C166.911 105.717 167.217 105.961 167.576 106.086C167.935 106.211 168.326 106.21 168.685 106.084C169.044 105.957 169.349 105.712 169.55 105.389C169.752 105.067 169.837 104.685 169.793 104.307C169.614 101.299 166.516 99.3149 163.047 99.7885C161.147 99.9597 159.367 100.791 158.015 102.138C156.664 103.484 155.827 105.262 155.649 107.161C155.628 107.578 155.763 107.987 156.028 108.309C156.292 108.631 156.667 108.843 157.079 108.904C157.492 108.964 157.912 108.869 158.258 108.637C158.604 108.405 158.851 108.052 158.951 107.648Z" fill="black"/>
<path d="M174.58 85.1714C176.999 85.5938 179.892 80.717 187.38 81.869C187.843 81.9471 188.319 81.8388 188.702 81.5679C189.086 81.2969 189.347 80.8852 189.428 80.4226C187.931 73.5618 165.914 83.6738 174.58 85.1714Z" fill="black"/>
<path d="M28.3535 12.1857C26.6639 13.0433 24.9487 13.8625 28.1103 19.1233C33.2303 27.6225 35.0863 29.2097 37.1983 27.9297C39.3103 26.6497 39.2335 25.6001 36.1615 20.4801C33.8575 16.6401 30.6703 11.0081 28.3535 12.1857Z" fill="#565ADD"/>
<path d="M36.7753 69.6699C34.7145 68.3899 33.7161 68.9403 30.5801 74.0219C28.2505 77.8619 24.6793 83.1995 26.8041 84.7355C28.3273 85.8363 29.8505 86.9883 33.0761 81.7915C38.3113 73.3435 38.9001 70.9627 36.7753 69.6699Z" fill="#565ADD"/>
<path d="M28.3403 60.7613C27.1499 58.6493 26.0107 58.6493 20.8139 61.5549C16.9739 63.7309 11.2011 66.6749 12.3019 69.0813C13.1083 70.7965 13.8635 72.5501 19.2267 69.5549C27.8923 64.7293 29.5435 62.9117 28.3403 60.7613Z" fill="#565ADD"/>
<path d="M70.7979 37.0171C71.9883 39.1675 74.3948 38.7067 83.0604 33.8555C88.398 30.8475 87.4508 29.1707 86.5292 27.5323C85.2492 25.2923 79.2844 28.8123 75.406 31.0139C70.2092 33.9323 69.6203 34.8923 70.7979 37.0171Z" fill="#565ADD"/>
<path d="M16.1545 33.818C24.8201 38.6564 27.2265 39.0916 28.4169 36.9412C29.6073 34.7908 29.0057 33.8564 23.7961 30.9636C19.9561 28.8004 14.3497 25.498 12.9161 27.674C11.8793 29.2612 10.8041 30.8228 16.1545 33.818Z" fill="#565ADD"/>
<path d="M25.2812 48.8063C25.2812 46.3871 24.2956 45.8239 18.3308 45.8239C13.8892 45.8239 7.41238 45.6447 7.23318 48.2431C7.09238 50.1247 6.90038 52.0831 13.0316 52.0831C22.9644 52.0575 25.2812 51.2767 25.2812 48.8063Z" fill="#565ADD"/>
<path d="M49.857 73.1265C47.3994 73.1265 46.6186 75.4433 46.6314 85.3761C46.6314 91.5073 48.577 91.4817 50.4714 91.4817C53.0314 91.4817 52.8522 84.5185 52.8522 80.0769C52.8394 74.1249 52.289 73.1265 49.857 73.1265Z" fill="#565ADD"/>
<path d="M78.4656 61.3499C73.256 58.4571 72.0656 58.4571 70.9392 60.5819C69.8128 62.7067 71.3872 64.5371 80.0783 69.3499C85.4415 72.3195 86.3632 70.6299 87.2848 68.9787C88.5264 66.7387 82.4208 63.5131 78.4656 61.3499Z" fill="#565ADD"/>
<path d="M80.8842 45.8247C74.9194 45.8247 73.9338 46.3879 73.9338 48.8071C73.9338 51.2263 76.2506 52.0583 86.1834 52.0327C92.3146 52.0327 92.289 50.0999 92.289 48.1927C92.289 45.6455 85.3258 45.8375 80.8842 45.8247Z" fill="#565ADD"/>
<path d="M62.3507 28.2883C64.4499 29.5683 66.3315 28.0195 71.5411 19.5715C74.7539 14.3491 73.1027 13.3507 71.5411 12.3523C69.3139 11.0083 65.7811 17.0243 63.4771 20.8131C60.3411 25.8819 60.2899 27.0083 62.3507 28.2883Z" fill="#565ADD"/>
<path d="M50.4206 6.4006C48.539 6.2598 46.5806 6.0806 46.5806 12.199C46.5806 22.1318 47.3486 24.4486 49.8062 24.4486C52.2638 24.4486 52.7886 23.463 52.7886 17.4982C52.8398 13.0822 52.9806 6.6054 50.4206 6.4006Z" fill="#565ADD"/>
<path d="M62.3503 69.581C60.2383 70.861 60.7759 73.2417 65.9215 81.7281C69.0959 86.9761 70.7471 85.965 72.3215 84.9794C74.5103 83.6994 70.7599 77.7986 68.4815 73.9842C65.4223 68.8898 64.4239 68.3266 62.3503 69.581Z" fill="#565ADD"/>
</svg>
