<svg width="256" height="256" viewBox="0 0 256 256" fill="none" xmlns="http://www.w3.org/2000/svg">
<path d="M229.507 209.221C221.532 210.219 201.692 217.336 196.828 220.331C191.964 223.326 192.464 228.805 199.568 228.933C207.926 229.061 230.377 221.253 234.755 216.709C238.364 213.086 236.995 208.235 229.507 209.221Z" fill="#565ADD"/>
<path d="M53.622 199.121C35.7788 213.713 44.0092 243.78 68.5852 243.409C91.1644 244.407 102.019 217.463 87.926 201.361C83.5518 196.718 77.5804 193.905 71.2149 193.489C64.8493 193.074 58.5628 195.086 53.622 199.121ZM83.8044 236.241C76.8156 241.732 61.7244 243.857 51.9964 234.244C39.2732 220.164 50.3708 195.703 69.9164 196.074C92.0348 196.369 98.5244 224.567 83.8044 236.292V236.241Z" fill="#565ADD"/>
<path d="M78.0699 202.359C75.3179 202.987 70.2107 221.7 67.8299 221.828C61.7115 222.071 54.3515 209.719 52.2267 221.7C51.7275 224.068 66.8315 233.668 71.0683 233.668C75.3051 233.668 86.8635 208.132 85.6603 205.854C84.8536 204.615 83.7127 203.629 82.3696 203.011C81.0265 202.392 79.5359 202.167 78.0699 202.359Z" fill="#565ADD"/>
<path d="M138.191 122.398C136.45 123.268 132.585 138.615 130.959 139.115C128.719 139.371 125.34 135.671 122.972 135.505C121.602 135.403 120.604 137.617 120.732 139.87C120.86 141.611 130.319 147.281 133.826 146.603C136.693 146.052 144.437 125.521 143.439 124.023C142.852 123.228 142.026 122.641 141.082 122.349C140.138 122.056 139.125 122.073 138.191 122.398Z" fill="#565ADD"/>
<path d="M121.104 106.68C118.237 106.808 111.875 99.3196 111.005 107.179C111.133 108.932 120.362 114.296 123.101 113.912C126.467 113.412 133.955 93.086 132.957 91.5884C131.959 90.0908 129.859 88.862 128.592 89.9628C127.12 91.2428 122.73 106.18 121.104 106.68Z" fill="#565ADD"/>
<path d="M113.116 81.3606C116.623 80.9382 124.47 60.5222 123.471 59.0246C122.473 57.527 118.978 57.2838 117.238 58.6534C115.74 59.9334 112.386 73.783 110.748 74.1286C108.022 74.6918 100.649 66.8838 100.649 74.4998C100.649 76.1254 110.505 81.6678 113.116 81.3606Z" fill="#565ADD"/>
<path d="M196.573 146.104C193.578 146.475 185.718 137.553 183.235 137.617C180.752 137.681 178.243 141.457 177.872 145.297C177.501 149.137 194.512 163.896 200.912 162.897C207.658 161.899 222.122 125.214 221.008 121.476C219.894 117.739 214.39 115.985 211.523 117.483C207.683 119.531 199.568 145.732 196.573 146.104Z" fill="#565ADD"/>
<path d="M203.932 165.559C194.55 171.191 176.438 167.915 172.624 155.959C171.085 152.311 170.614 148.301 171.267 144.395C171.919 140.49 173.668 136.85 176.309 133.9C178.949 130.949 182.373 128.809 186.183 127.729C189.993 126.649 194.031 126.673 197.827 127.799C201.321 128.798 201.436 126.187 198.569 125.431C177.232 119.467 159.171 143.351 173.251 162.103C177.372 167.595 185.846 170.59 191.708 170.718C206.032 171.115 208.912 162.577 203.932 165.559Z" fill="#565ADD"/>
<path d="M121.975 235.422C119.236 234.666 107.639 240.657 108.509 243.78C109.252 246.34 120.656 244.599 123.472 242.782C124.105 242.312 124.591 241.671 124.872 240.935C125.154 240.199 125.22 239.398 125.063 238.626C124.906 237.853 124.532 237.142 123.985 236.574C123.438 236.007 122.741 235.607 121.975 235.422Z" fill="#565ADD"/>
<path d="M96.0273 71.6336C101.506 90.68 99.6241 90.9104 121.973 83.8576C128.091 81.8608 126.594 77.24 125.339 72.8752C124.725 70.3152 122.101 69.6368 122.6 72.376C123.355 75.9984 125.224 80.2352 121.103 81.4896C107.023 85.88 103.375 87.8896 101.391 81.6048C95.9249 63.8384 96.1169 67.0512 112.616 61.2784C114.741 60.5232 112.501 58.7184 110.619 59.4096C106.639 60.6896 103.887 61.6496 100.277 62.8912C96.6673 64.1328 94.6577 67.2688 96.0273 71.6336Z" fill="black"/>
<path d="M133.083 63.3906C137.819 61.893 170.382 54.0338 172.878 53.2914C175.374 52.549 177.115 49.925 172.251 50.9234C168.411 51.6658 140.251 57.5282 132.712 60.7794C130.958 61.5218 130.715 64.1458 133.083 63.3906Z" fill="black"/>
<path d="M113.87 117.355C111.502 117.112 109.876 111.121 108.007 104.017C105.998 96.2091 110.785 97.6171 122.855 93.7771C125.223 93.0347 123.47 91.2811 119.975 92.1643C108.379 95.0315 103.259 95.6587 105.639 104.516C109.006 116.74 110.004 120.734 115.739 120.235C120.9 119.661 125.97 118.444 130.83 116.612C138.075 114.244 136.078 109.124 134.58 103.518C133.697 100.267 131.521 102.148 132.212 104.888C132.903 107.627 134.695 112.248 130.331 113.745C126.363 115.166 118.235 117.905 113.87 117.355Z" fill="black"/>
<path d="M156.904 67.141C170.011 64.2738 170.984 63.5186 171.125 62.277C171.24 61.3938 170.127 61.2786 169.013 61.5218C167.899 61.765 159.029 63.7746 156.661 64.773C154.293 65.7714 155.407 67.5122 156.904 67.141Z" fill="black"/>
<path d="M123.804 207.108C129.679 211.511 171.497 200.043 178.691 198.251C191.887 195.051 208.054 192.132 217.986 185.451C225.27 180.663 233.001 171.127 236.943 163.243C241.142 156.254 240.335 150.75 238.07 143.031C230.825 118.455 219.983 76.6635 210.742 47.6075C208.745 40.9899 207.004 35.3835 206.006 31.7611C204.009 25.0283 200.886 23.7739 196.905 24.1451C193.91 15.7995 185.385 15.7995 178.063 17.0411C157.583 20.5995 144.412 23.7355 140.265 21.4059C139.766 21.0347 139.638 20.4075 139.638 18.8459C139.699 16.5611 139.114 14.3054 137.948 12.3395C136.782 10.3735 135.084 8.77738 133.05 7.73549C131.015 6.69283 128.728 6.24654 126.451 6.44811C124.174 6.64968 122.001 7.49089 120.182 8.87469C118.533 8.55928 116.839 8.55928 115.19 8.87469C107.587 10.7435 106.46 18.1035 109.199 23.3387C110.198 25.2075 109.455 25.7067 107.203 26.7051C106.332 27.0891 101.724 29.4571 100.342 31.6971C48.9497 43.0507 64.5785 47.6715 82.1273 111.915C85.0201 122.462 100.342 172.292 102.607 180.395C106.102 190.007 107.1 202.974 113.705 204.228C115.471 207.94 119.862 208.439 123.804 207.108ZM213.494 184.529C218.857 177.041 221.891 167.415 222.851 155.831C222.953 154.551 222.722 152.836 224.22 152.964C228.465 153.621 232.586 154.916 236.444 156.804C234.742 163.435 225.769 177.105 213.545 184.529H213.494ZM194.025 24.5291C190.39 25.2587 175.388 27.7291 164.841 29.8923C164.229 28.9111 163.474 28.0267 162.601 27.2683C185.654 22.2891 192.233 21.3547 194.076 24.4779L194.025 24.5291ZM125.289 9.80909C126.659 9.48539 128.084 9.48227 129.455 9.79999C130.826 10.1177 132.106 10.7477 133.193 11.6408C134.281 12.534 135.148 13.6662 135.726 14.9492C136.304 16.2322 136.578 17.6315 136.527 19.0379C136.399 24.4011 140.764 25.5275 145.999 25.1435C152.399 25.1435 164.969 28.1387 163.087 36.3819C162.473 39.3643 134.531 44.4843 123.177 46.9803C112.067 49.3483 109.199 49.9755 108.086 47.6075C104.335 39.3643 110.953 33.6299 115.689 32.0043C120.182 30.5195 123.049 26.8843 120.425 22.5323C117.801 18.1803 118.364 11.6267 125.34 9.75789L125.289 9.80909ZM112.822 26.2699C113.82 23.2747 111.542 21.6619 111.081 18.7819C110.454 15.1723 113.641 11.6779 117.558 11.5499C115.19 15.1723 115.689 20.1643 117.686 23.7739C119.183 26.3979 118.185 27.1403 116.188 28.2667C112.95 28.8939 109.084 29.7643 106.204 30.2635C108.508 29.3419 111.875 28.3435 112.873 26.2187L112.822 26.2699ZM136.643 47.3515C157.571 43.2299 168.86 41.7835 166.082 32.7595C175.196 30.8907 189.788 28.3947 192.412 28.0235C198.646 27.0251 201.27 26.1419 203.01 32.8875C207.132 46.9675 215.491 73.5531 218.729 85.7771C233.718 141.572 236.815 147.294 236.815 153.515C233.259 151.994 229.533 150.907 225.718 150.276C221.097 149.393 219.599 151.39 219.484 158.507C216.489 158.135 213.366 157.508 213.622 161.067C213.993 167.185 212.124 181.547 202.511 189.508C199.804 190.284 197.056 190.912 194.281 191.39C172.521 195.499 147.254 204.855 126.172 205.227C124.892 205.227 125.494 204.791 117.443 179.281C106.46 142.366 91.8425 98.9483 83.0105 61.7771C80.0153 49.2971 91.3689 48.4267 103.964 45.5595C105.884 56.1067 113.334 51.9083 136.694 47.3003L136.643 47.3515ZM75.2025 58.2059C72.8729 46.8907 77.1353 44.7915 104.643 38.3659C104.172 39.5671 103.878 40.8305 103.772 42.1163C89.9225 46.2251 77.3145 45.9563 80.3097 61.9435C83.3049 77.9307 121.795 204.279 121.859 204.407C120.233 204.779 118.019 204.907 116.995 203.78C105.078 159.377 80.2841 82.9867 75.1641 58.1547L75.2025 58.2059Z" fill="black"/>
<path d="M235.867 209.605C234.997 203.205 228.264 200.862 217.153 201.617C206.427 202.488 174.913 209.297 171.88 210.219C171.074 210.575 170.348 211.09 169.747 211.734C169.147 212.38 168.684 213.14 168.385 213.969C155.291 216.965 119.477 226.193 113 238.661C115.102 237.37 117.366 236.363 119.733 235.665C133.441 224.862 171.201 216.081 173.493 216.081C181.313 215.07 185.55 229.432 178.741 233.797C175.745 235.665 139.573 243.525 121.729 243.525C119.425 244.284 117.034 244.748 114.613 244.907C122.088 250.373 166.03 240.99 177.486 237.419C178.362 237.765 179.297 237.934 180.238 237.918C183.105 237.918 194.203 234.296 198.696 232.427C205.441 239.173 236.507 224.273 240.488 219.627C244.225 214.968 242.728 209.605 235.867 209.605ZM197.07 229.803C192.314 231.7 187.44 233.286 182.478 234.552C188.353 227.832 184.296 212.792 173.992 212.792C182.184 211.179 230.734 196.997 232.872 209.797C224.923 212.216 195.329 220.945 197.07 229.803ZM237.864 218.078C233 222.2 220.149 227.307 211.79 229.803C208.296 230.929 203.432 231.8 200.821 230.059C194.075 225.566 231.374 212.587 235.995 212.587C240.616 212.587 240.616 215.71 237.864 218.078Z" fill="black"/>
<path d="M145.051 103.275C147.419 102.968 174.99 94.7887 176.872 94.3151C178.357 93.8159 178.485 92.2031 176.987 92.2031C173.877 92.2031 166.632 95.0703 156.904 97.5663C153.294 98.4367 146.804 99.8063 144.68 100.805C142.555 101.803 142.67 103.634 145.051 103.275Z" fill="black"/>
<path d="M127.835 22.4812C134.452 22.6092 133.454 11.87 126.964 13.7516C125.907 13.9828 124.97 14.5946 124.334 15.4708C123.698 16.3469 123.406 17.4264 123.513 18.5039C123.62 19.5814 124.12 20.5819 124.917 21.3152C125.714 22.0485 126.752 22.4634 127.835 22.4812ZM128.334 15.9916C130.331 15.9916 130.587 19.358 128.59 19.8316C125.467 20.7148 124.852 15.9916 128.334 15.9916Z" fill="black"/>
<path d="M144.68 137.118C143.554 134.251 141.941 135.121 142.312 136.491C143.694 141.342 145.435 145.451 140.571 146.603C136.195 148.235 131.685 149.485 127.093 150.34C122.05 151.39 120.936 148.984 117.736 135.377C116.942 130.82 118.491 130.564 131.586 126.648C133.826 126.02 134.082 125.368 133.582 124.894C131.867 123.243 123.227 126.52 119.861 127.889C116.494 129.259 114.37 130.628 115.24 135.569C115.984 139.776 117.111 143.906 118.606 147.908C121.166 154.232 123.458 154.897 141.186 148.907C146.766 146.961 146.741 142.609 144.68 137.118Z" fill="black"/>
<path d="M149.8 67.7679C148.417 66.3855 145.55 67.5119 134.44 70.7503C132.443 71.3775 133.16 73.1311 134.811 73.1311C136.462 73.1311 143.016 70.7503 148.289 69.3807C149.915 68.9711 150.171 68.1391 149.8 67.7679Z" fill="black"/>
<path d="M81.0657 185.771C73.5238 181.422 64.6888 179.877 56.1185 181.406C53.0222 179.484 49.5114 178.33 45.8785 178.04C45.4855 175.468 44.4271 173.044 42.8082 171.007C41.1894 168.971 39.0664 167.393 36.6497 166.43C21.4305 159.697 7.83693 174.417 14.5697 188.638C17.3217 194.5 22.2497 198.123 27.7921 198.123C28.1828 199.884 28.8572 201.57 29.7889 203.115C27.5489 213.713 28.6753 223.326 33.7825 230.187C44.7649 245.022 55.7345 249.515 67.3441 249.515C105.399 249.515 111.85 202.104 81.0657 185.771ZM27.4209 195C16.4385 194.257 11.9841 178.948 19.8177 171.307C26.6913 164.587 41.5777 168.683 42.7681 178.167C33.9105 179.281 27.2929 186.475 27.4209 195ZM51.4977 182.532C42.5377 185.092 34.7809 190.763 31.2865 198.993C27.8049 186.641 39.9009 177.617 51.4977 182.532ZM39.4017 232.056C25.5521 217.707 30.0449 189.009 55.6193 184.401C63.8785 183.062 72.3485 184.508 79.6961 188.51C51.1649 179.345 29.0849 206.417 39.4017 232.056ZM80.8097 243.78C62.6593 251.243 47.7601 244.024 41.7697 229.56C35.6513 209.886 47.9265 189.764 69.5841 189.764C99.4849 189.393 108.816 232.273 80.8097 243.78Z" fill="black"/>
<path d="M141.057 90.9613C138.945 91.8317 138.945 93.4573 141.313 93.4573C143.681 93.4573 155.905 89.2205 160.654 87.5949C165.403 85.9693 190.708 79.7357 191.707 79.2365C192.705 78.7373 193.46 76.3693 188.712 77.2397C178.395 79.0957 141.825 90.6541 141.057 90.9613Z" fill="black"/>
<path d="M166.632 128.145C163.394 129.016 158.952 130.885 156.661 131.627C154.37 132.369 154.664 134.187 156.904 134.123C159.144 134.059 166.133 131.128 167.259 130.629C168.386 130.129 169.883 127.262 166.632 128.145Z" fill="black"/>
<path d="M168.603 118.904C163.368 120.785 155.88 122.744 153.512 123.896C151.144 125.048 152.385 126.456 153.768 126.456C155.15 126.456 164.072 123.23 169.601 121.336C177.409 118.686 190.081 115.973 192.641 114.936C195.201 113.899 195.765 111.198 191.771 112.568C187.777 113.937 176.488 116.293 168.603 118.904Z" fill="black"/>
</svg>
