<svg width="20" height="20" viewBox="0 0 20 20" fill="none" xmlns="http://www.w3.org/2000/svg">
<path fill-rule="evenodd" clip-rule="evenodd" d="M4.16667 17.5C3.70833 17.5 3.31597 17.3368 2.98958 17.0104C2.66319 16.684 2.5 16.2917 2.5 15.8333V5.4375C2.5 5.24306 2.53125 5.05556 2.59375 4.875C2.65625 4.69444 2.75 4.52778 2.875 4.375L3.91667 3.10417C4.06944 2.90973 4.26042 2.76042 4.48958 2.65625C4.71875 2.55208 4.95833 2.5 5.20833 2.5H14.7917C15.0417 2.5 15.2812 2.55208 15.5104 2.65625C15.7396 2.76042 15.9306 2.90973 16.0833 3.10417L17.125 4.375C17.25 4.52778 17.3438 4.69444 17.4062 4.875C17.4688 5.05556 17.5 5.24306 17.5 5.4375V8.06136C16.7423 7.70141 15.8947 7.5 15 7.5C14.4208 7.5 13.8614 7.5844 13.3333 7.74157V6.66667H6.66667V13.3333L9.31792 12.0077C9.219 12.4336 9.16667 12.8773 9.16667 13.3333C9.16667 14.9656 9.83708 16.4412 10.9175 17.5H4.16667ZM4.5 5H15.5L14.7917 4.16667H5.20833L4.5 5ZM12.0521 16.2812C12.8646 17.0938 13.8472 17.5 15 17.5C16.1528 17.5 17.1354 17.0938 17.9479 16.2812C18.7604 15.4688 19.1667 14.4861 19.1667 13.3333C19.1667 12.1806 18.7604 11.1979 17.9479 10.3854C17.1354 9.57292 16.1528 9.16667 15 9.16667C13.8472 9.16667 12.8646 9.57292 12.0521 10.3854C11.2396 11.1979 10.8333 12.1806 10.8333 13.3333C10.8333 14.4861 11.2396 15.4688 12.0521 16.2812ZM16.9792 14.7292L16.3958 15.3125L14.5833 13.5V10.8333H15.4167V13.1667L16.9792 14.7292Z" fill="black"/>
</svg>
