<svg width="20" height="22" viewBox="0 0 20 22" fill="none" xmlns="http://www.w3.org/2000/svg">
<path d="M7.136 16L12.304 4.176H13.648L8.448 16H7.136ZM12.672 15.248C12.416 15.1093 12.1973 14.9333 12.016 14.72C11.8453 14.5067 11.7173 14.272 11.632 14.016C11.5573 13.76 11.5307 13.4933 11.552 13.216C11.5733 12.9387 11.648 12.672 11.776 12.416C11.9147 12.1493 12.0853 11.9307 12.288 11.76C12.5013 11.5787 12.736 11.4507 12.992 11.376C13.2587 11.2907 13.5307 11.2587 13.808 11.28C14.096 11.2907 14.3733 11.3653 14.64 11.504C14.8853 11.632 15.0933 11.808 15.264 12.032C15.4453 12.2453 15.5733 12.48 15.648 12.736C15.7333 12.992 15.7653 13.2587 15.744 13.536C15.7333 13.8133 15.6587 14.08 15.52 14.336C15.392 14.592 15.216 14.8107 14.992 14.992C14.7787 15.1627 14.544 15.2907 14.288 15.376C14.032 15.4613 13.76 15.4933 13.472 15.472C13.1947 15.4507 12.928 15.376 12.672 15.248ZM13.648 14.928C13.8507 14.928 14.048 14.8907 14.24 14.816C14.432 14.7307 14.5973 14.6187 14.736 14.48C14.8747 14.3307 14.9813 14.1653 15.056 13.984C15.1413 13.792 15.184 13.5893 15.184 13.376C15.184 13.1627 15.1413 12.96 15.056 12.768C14.9813 12.576 14.8747 12.4107 14.736 12.272C14.5973 12.1227 14.432 12.0107 14.24 11.936C14.048 11.8507 13.8453 11.808 13.632 11.808C13.4187 11.808 13.216 11.8507 13.024 11.936C12.8427 12.0107 12.6827 12.1227 12.544 12.272C12.4053 12.4107 12.2933 12.576 12.208 12.768C12.1333 12.96 12.096 13.1573 12.096 13.36C12.096 13.584 12.1333 13.792 12.208 13.984C12.2933 14.1653 12.4053 14.3307 12.544 14.48C12.6827 14.6187 12.848 14.7307 13.04 14.816C13.232 14.8907 13.4347 14.928 13.648 14.928ZM6.128 8.72C5.872 8.58133 5.65333 8.40533 5.472 8.192C5.30133 7.97867 5.17333 7.744 5.088 7.488C5.01333 7.22133 4.98133 6.94933 4.992 6.672C5.01333 6.39467 5.09333 6.128 5.232 5.872C5.36 5.616 5.53067 5.40267 5.744 5.232C5.968 5.05067 6.208 4.91733 6.464 4.832C6.72 4.74667 6.98667 4.71467 7.264 4.736C7.552 4.75733 7.82933 4.832 8.096 4.96C8.34133 5.088 8.54933 5.264 8.72 5.488C8.90133 5.70133 9.02933 5.94133 9.104 6.208C9.17867 6.464 9.20533 6.73067 9.184 7.008C9.17333 7.28533 9.104 7.552 8.976 7.808C8.83733 8.064 8.66133 8.28267 8.448 8.464C8.23467 8.63467 7.99467 8.76267 7.728 8.848C7.472 8.93333 7.20533 8.96533 6.928 8.944C6.65067 8.92267 6.384 8.848 6.128 8.72ZM7.088 8.4C7.30133 8.4 7.504 8.36267 7.696 8.288C7.888 8.20267 8.05333 8.09067 8.192 7.952C8.33067 7.80267 8.43733 7.63733 8.512 7.456C8.59733 7.264 8.64 7.06133 8.64 6.848C8.64 6.4 8.49067 6.02667 8.192 5.728C7.89333 5.41867 7.52 5.264 7.072 5.264C6.85867 5.264 6.656 5.30667 6.464 5.392C6.28267 5.47733 6.12267 5.59467 5.984 5.744C5.84533 5.88267 5.73333 6.048 5.648 6.24C5.57333 6.432 5.536 6.62933 5.536 6.832C5.536 7.056 5.57333 7.264 5.648 7.456C5.73333 7.63733 5.84533 7.80267 5.984 7.952C6.13333 8.09067 6.29867 8.20267 6.48 8.288C6.672 8.36267 6.87467 8.4 7.088 8.4Z" fill="white"/>
<rect x="0.5" y="1.5" width="19" height="19" stroke="white"/>
</svg>
