<svg width="20" height="20" viewBox="0 0 20 20" fill="none" xmlns="http://www.w3.org/2000/svg">
<path d="M14.287 2.03731C14.287 0.622953 12.7559 -0.26102 11.5311 0.446159C10.9626 0.774364 10.6124 1.38091 10.6124 2.03731C10.6124 3.45167 12.1435 4.33565 13.3684 3.62847C13.9368 3.30026 14.287 2.69372 14.287 2.03731ZM6.84977 6.91765C7.22872 6.53871 7.74546 6.32436 8.28517 6.32436C8.35789 6.32436 8.43062 6.32819 8.49952 6.33584L7.30527 9.92242C6.94929 10.9942 7.37034 12.1731 8.3311 12.7741L11.6306 14.8372L10.6584 18.2362C10.4708 18.8869 10.8497 19.5644 11.5005 19.752C12.1512 19.9396 12.8287 19.5606 13.0162 18.9099L14.1148 15.0669C14.3406 14.2784 14.0153 13.4363 13.3224 13.0037L11.1483 11.6449L12.3311 8.49085L12.5263 8.96166C13.1004 10.332 14.4363 11.2238 15.9215 11.2238H16.7368C17.4143 11.2238 17.9616 10.6765 17.9616 9.99897C17.9616 9.32146 17.4143 8.7741 16.7368 8.7741H15.9215C15.4277 8.7741 14.9799 8.47554 14.7923 8.02004L14.5511 7.44588C13.9923 6.10235 12.8631 5.07652 11.4698 4.64782L9.60573 4.07366C9.18085 3.94352 8.73684 3.87462 8.289 3.87462C7.1024 3.87462 5.96174 4.34543 5.12347 5.18752L4.23544 6.07173C3.75697 6.55019 3.75697 7.32722 4.23544 7.80569C4.71391 8.28415 5.49093 8.28415 5.9694 7.80569L6.8536 6.92148L6.84977 6.91765ZM5.52921 13.6736H3.2632C2.58569 13.6736 2.03833 14.2209 2.03833 14.8985C2.03833 15.576 2.58569 16.1233 3.2632 16.1233H5.92729C6.65456 16.1233 7.31293 15.6946 7.60766 15.0324L8.04785 14.041L7.68421 13.8114C7.01437 13.3942 6.51676 12.7856 6.23351 12.0927L5.52921 13.6736Z" fill="#565ADD"/>
</svg>
