<svg width="120" height="121" viewBox="0 0 120 121" fill="none" xmlns="http://www.w3.org/2000/svg">
<circle cx="60" cy="60.5" r="60" fill="#565ADD"/>
<path fill-rule="evenodd" clip-rule="evenodd" d="M35.2916 91.3753C36.5972 92.681 38.1666 93.3337 39.9999 93.3337H79.9999C81.8333 93.3337 83.4026 92.681 84.7083 91.3753C86.0139 90.0697 86.6666 88.5003 86.6666 86.667V46.667L66.6666 26.667H39.9999C38.1666 26.667 36.5972 27.3198 35.2916 28.6253C33.986 29.9309 33.3333 31.5003 33.3333 33.3337V86.667C33.3333 88.5003 33.986 90.0697 35.2916 91.3753ZM79.9999 50.0003H63.3333V33.3337L79.9999 50.0003ZM56.6666 56.667H63.3333V70.5837L68.6666 65.2503L73.3333 70.0003L59.9999 83.3337L46.6666 70.0003L51.4166 65.3337L56.6666 70.5837V56.667Z" fill="white"/>
</svg>
