<svg width="20" height="20" viewBox="0 0 20 20" fill="none" xmlns="http://www.w3.org/2000/svg">
<path fill-rule="evenodd" clip-rule="evenodd" d="M12.2222 5.40385C10.102 3.15893 6.54658 3.10815 4.36313 5.2916L4.17265 5.48208C2.13776 7.51697 2.13776 10.8161 4.17265 12.8511C4.36422 13.0426 4.56998 13.2114 4.78654 13.3573C3.37219 14.054 2.16053 15.149 1.32247 16.5458L1.25 16.6666H13.3333C16.0947 16.6666 18.3333 14.428 18.3333 11.6666V9.16657C18.3333 8.53248 18.0972 7.95352 17.7082 7.51279C17.7083 7.50851 17.7083 7.50422 17.7083 7.49991V4.99991C17.7083 4.65473 17.4285 4.37491 17.0833 4.37491C16.7382 4.37491 16.4583 4.65473 16.4583 4.99991V6.74534C16.2586 6.69392 16.0492 6.66657 15.8333 6.66657C15.6175 6.66657 15.4081 6.69392 15.2083 6.74534V4.99991C15.2083 4.65473 14.9285 4.37491 14.5833 4.37491C14.2382 4.37491 13.9583 4.65473 13.9583 4.99991V7.49991L13.9585 7.51279C13.9037 7.57479 13.852 7.63952 13.8036 7.70677C13.5312 7.01292 13.1242 6.359 12.582 5.78482L12.2222 5.40385ZM11.9793 12.0464C12.905 10.4325 12.7074 8.34498 11.3703 6.9292L11.0105 6.54822C9.53508 4.98606 7.06103 4.95072 5.54164 6.47011L5.35116 6.6606C3.96714 8.04462 3.96714 10.2886 5.35116 11.6726C6.30782 12.6292 7.85885 12.6292 8.8155 11.6726L9.20242 11.2856C9.68242 10.8056 9.68242 10.0275 9.20242 9.54748L8.78575 9.13082C8.53592 8.88098 8.13078 8.88098 7.88093 9.13082L7.67259 9.33915C7.53779 9.47398 7.53779 9.69248 7.67259 9.82731L6.49407 11.0058C5.7084 10.2201 5.7084 8.94631 6.49407 8.16066L6.70241 7.95232C7.60314 7.05159 9.0635 7.05159 9.96425 7.95232L10.3809 8.36898C11.5118 9.49981 11.5118 11.3333 10.3809 12.4641L10.3452 12.4999H10.4167C10.9916 12.4999 11.5276 12.3336 11.9793 12.0464Z" fill="black"/>
</svg>
