<svg width="20" height="20" viewBox="0 0 20 20" fill="none" xmlns="http://www.w3.org/2000/svg">
<path d="M14.8003 1.90783C15.0262 1.38339 14.8577 0.770915 14.3945 0.434049C13.9314 0.097183 13.2997 0.127812 12.8672 0.502955L3.06752 9.07765C2.68472 9.41451 2.54691 9.95426 2.72683 10.4289C2.90675 10.9036 3.3661 11.2252 3.87522 11.2252H8.14343L5.19971 18.0926C4.97386 18.617 5.14229 19.2295 5.60548 19.5663C6.06867 19.9032 6.70028 19.8726 7.13284 19.4974L16.9325 10.9227C17.3153 10.5859 17.4531 10.0461 17.2732 9.57146C17.0933 9.09679 16.6377 8.77907 16.1248 8.77907H11.8566L14.8003 1.90783Z" fill="white"/>
</svg>
