<svg width="1440" height="4314" viewBox="0 0 1440 4314" fill="none" xmlns="http://www.w3.org/2000/svg">
<g clip-path="url(#clip0_1741_11799)">
<rect width="1440" height="4314" fill="#F9F9F9"/>
<mask id="mask0_1741_11799" style="mask-type:alpha" maskUnits="userSpaceOnUse" x="-284" y="-511" width="2143" height="1646">
<g clip-path="url(#clip1_1741_11799)">
<path d="M852.747 84.7638C852.747 232.024 645.071 363.542 524.966 363.542C404.86 363.542 -345.546 -152.955 -345.546 -300.215C-345.546 -447.475 732.642 -244.745 852.747 -244.745C972.853 -244.745 852.747 -62.496 852.747 84.7638Z" fill="url(#paint0_linear_1741_11799)"/>
<path d="M590.908 846.823C590.908 968.424 527.082 1067 448.348 1067C369.614 1067 -69 1038.66 -69 917.056C-69 795.455 -67.5533 476.449 11.1804 476.449C219.154 616.276 387.652 411.375 525.373 489.307C642.304 555.474 566.675 757.197 590.908 846.823Z" fill="url(#paint1_radial_1741_11799)"/>
<path d="M1223.93 214.32C1580.06 543.642 1414.89 378.876 1706.38 386.482C1752.63 397.857 1830.39 402.407 1771.35 329.601C1697.55 238.595 1716.64 178.094 1625.14 78.3535C1533.64 -21.3871 1475.9 -120.854 1337.36 -279.118C1198.82 -437.382 1195.3 -313.166 1047.42 -332.804C899.539 -352.443 967.687 -330.1 775.993 -121.3C584.3 87.5001 867.793 -115.002 1223.93 214.32Z" fill="#D9D9D9"/>
<path d="M878.506 672.588C444.977 718.303 654.18 704.193 476.483 896.083C441.406 920.539 392.298 970.242 476.483 973.403C581.715 977.354 611.331 1025.89 732.946 1023.07C854.561 1020.25 956.012 1040 1145.05 1040C1334.09 1040 1252.17 964.373 1352.99 876.329C1453.82 788.286 1398.36 821.02 1370.64 568.742C1342.91 316.463 1312.04 626.873 878.506 672.588Z" fill="#D9D9D9"/>
</g>
</mask>
<g mask="url(#mask0_1741_11799)">
<line x1="-4.07715" y1="1120.12" x2="1507.5" y2="1120.12" stroke="#353336" stroke-opacity="0.11" stroke-width="1.2607"/>
<line x1="-4.07715" y1="474.64" x2="1507.5" y2="474.64" stroke="#353336" stroke-opacity="0.11" stroke-width="1.2607"/>
<line x1="-4.07715" y1="797.378" x2="1507.5" y2="797.378" stroke="#353336" stroke-opacity="0.11" stroke-width="1.2607"/>
<line x1="-4.07715" y1="151.902" x2="1507.5" y2="151.902" stroke="#353336" stroke-opacity="0.11" stroke-width="1.2607"/>
<line x1="-4.07715" y1="958.748" x2="1507.5" y2="958.748" stroke="#353336" stroke-opacity="0.11" stroke-width="1.2607"/>
<line x1="-4.07715" y1="313.27" x2="1507.5" y2="313.27" stroke="#353336" stroke-opacity="0.11" stroke-width="1.2607"/>
<line x1="-4.07715" y1="636.008" x2="1507.5" y2="636.008" stroke="#353336" stroke-opacity="0.11" stroke-width="1.2607"/>
<line x1="-4.07715" y1="1039.43" x2="1507.5" y2="1039.43" stroke="#353336" stroke-opacity="0.11" stroke-width="1.2607"/>
<line x1="-4.07715" y1="393.955" x2="1507.5" y2="393.955" stroke="#353336" stroke-opacity="0.11" stroke-width="1.2607"/>
<line x1="-4.07715" y1="716.693" x2="1507.5" y2="716.693" stroke="#353336" stroke-opacity="0.11" stroke-width="1.2607"/>
<line x1="-4.07715" y1="71.2168" x2="1507.5" y2="71.2168" stroke="#353336" stroke-opacity="0.11" stroke-width="1.2607"/>
<line x1="-4.07715" y1="878.063" x2="1507.5" y2="878.063" stroke="#353336" stroke-opacity="0.11" stroke-width="1.2607"/>
<line x1="-4.07715" y1="232.585" x2="1507.5" y2="232.585" stroke="#353336" stroke-opacity="0.11" stroke-width="1.2607"/>
<line x1="-4.07715" y1="555.325" x2="1507.5" y2="555.325" stroke="#353336" stroke-opacity="0.11" stroke-width="1.2607"/>
<line x1="43.1982" y1="-199.203" x2="43.1982" y2="968.203" stroke="#353336" stroke-opacity="0.11" stroke-width="1.2607"/>
<line x1="688.679" y1="-199.203" x2="688.679" y2="968.203" stroke="#353336" stroke-opacity="0.11" stroke-width="1.2607"/>
<line x1="365.939" y1="-199.203" x2="365.939" y2="968.203" stroke="#353336" stroke-opacity="0.11" stroke-width="1.2607"/>
<line x1="1011.42" y1="-199.203" x2="1011.41" y2="968.203" stroke="#353336" stroke-opacity="0.11" stroke-width="1.2607"/>
<line x1="1334.63" y1="-199" x2="1334.63" y2="968.406" stroke="#353336" stroke-opacity="0.11" stroke-width="1.2607"/>
<line x1="204.568" y1="-199.203" x2="204.568" y2="968.203" stroke="#353336" stroke-opacity="0.11" stroke-width="1.2607"/>
<line x1="850.045" y1="-199.203" x2="850.045" y2="968.203" stroke="#353336" stroke-opacity="0.11" stroke-width="1.2607"/>
<line x1="527.309" y1="-199.203" x2="527.309" y2="968.203" stroke="#353336" stroke-opacity="0.11" stroke-width="1.2607"/>
<line x1="1172.79" y1="-199.203" x2="1172.79" y2="968.203" stroke="#353336" stroke-opacity="0.11" stroke-width="1.2607"/>
<line x1="123.885" y1="-199.203" x2="123.885" y2="968.203" stroke="#353336" stroke-opacity="0.11" stroke-width="1.2607"/>
<line x1="769.362" y1="-199.203" x2="769.362" y2="968.203" stroke="#353336" stroke-opacity="0.11" stroke-width="1.2607"/>
<line x1="446.621" y1="-199.203" x2="446.621" y2="968.203" stroke="#353336" stroke-opacity="0.11" stroke-width="1.2607"/>
<line x1="1092.1" y1="-199.203" x2="1092.1" y2="968.203" stroke="#353336" stroke-opacity="0.11" stroke-width="1.2607"/>
<line x1="1414.84" y1="-199.203" x2="1414.84" y2="968.203" stroke="#353336" stroke-opacity="0.11" stroke-width="1.2607"/>
<line x1="285.256" y1="-199.203" x2="285.256" y2="968.203" stroke="#353336" stroke-opacity="0.11" stroke-width="1.2607"/>
<line x1="930.732" y1="-199.203" x2="930.732" y2="968.203" stroke="#353336" stroke-opacity="0.11" stroke-width="1.2607"/>
<line x1="607.992" y1="-199.203" x2="607.992" y2="968.203" stroke="#353336" stroke-opacity="0.11" stroke-width="1.2607"/>
<line x1="1253.47" y1="-199.203" x2="1253.47" y2="968.203" stroke="#353336" stroke-opacity="0.11" stroke-width="1.2607"/>
</g>
<mask id="mask1_1741_11799" style="mask-type:alpha" maskUnits="userSpaceOnUse" x="-284" y="1025" width="2143" height="1112">
<g clip-path="url(#clip2_1741_11799)">
<path d="M852.747 1620.76C852.747 1768.02 645.071 1899.54 524.966 1899.54C404.86 1899.54 -345.546 1383.04 -345.546 1235.78C-345.546 1088.52 732.642 1291.26 852.747 1291.26C972.853 1291.26 852.747 1473.5 852.747 1620.76Z" fill="url(#paint2_linear_1741_11799)"/>
<path d="M590.908 2382.82C590.908 2504.42 527.082 2603 448.348 2603C369.614 2603 -69 2574.66 -69 2453.06C-69 2331.46 -67.5533 2012.45 11.1804 2012.45C219.154 2152.28 387.652 1947.37 525.373 2025.31C642.304 2091.47 566.675 2293.2 590.908 2382.82Z" fill="url(#paint3_radial_1741_11799)"/>
<path d="M1223.93 1750.32C1580.06 2079.64 1414.89 1914.88 1706.38 1922.48C1752.63 1933.86 1830.39 1938.41 1771.35 1865.6C1697.55 1774.59 1716.64 1714.09 1625.14 1614.35C1533.64 1514.61 1475.9 1415.15 1337.36 1256.88C1198.82 1098.62 1195.3 1222.83 1047.42 1203.2C899.539 1183.56 967.687 1205.9 775.993 1414.7C584.3 1623.5 867.793 1421 1223.93 1750.32Z" fill="#D9D9D9"/>
<path d="M878.506 2208.59C444.977 2254.3 654.18 2240.19 476.483 2432.08C441.406 2456.54 392.298 2506.24 476.483 2509.4C581.715 2513.35 611.331 2561.89 732.946 2559.07C854.561 2556.25 956.012 2576 1145.05 2576C1334.09 2576 1252.17 2500.37 1352.99 2412.33C1453.82 2324.29 1398.36 2357.02 1370.64 2104.74C1342.91 1852.46 1312.04 2162.87 878.506 2208.59Z" fill="#D9D9D9"/>
</g>
</mask>
<g mask="url(#mask1_1741_11799)">
<line x1="-4.07715" y1="2010.64" x2="1507.5" y2="2010.64" stroke="#353336" stroke-opacity="0.11" stroke-width="1.2607"/>
<line x1="-4.07715" y1="1687.9" x2="1507.5" y2="1687.9" stroke="#353336" stroke-opacity="0.11" stroke-width="1.2607"/>
<line x1="-4.07715" y1="1365.16" x2="1507.5" y2="1365.16" stroke="#353336" stroke-opacity="0.11" stroke-width="1.2607"/>
<line x1="-4.07715" y1="1849.27" x2="1507.5" y2="1849.27" stroke="#353336" stroke-opacity="0.11" stroke-width="1.2607"/>
<line x1="-4.07715" y1="1526.53" x2="1507.5" y2="1526.53" stroke="#353336" stroke-opacity="0.11" stroke-width="1.2607"/>
<line x1="-4.07715" y1="1203.79" x2="1507.5" y2="1203.79" stroke="#353336" stroke-opacity="0.11" stroke-width="1.2607"/>
<line x1="-4.07715" y1="1929.95" x2="1507.5" y2="1929.95" stroke="#353336" stroke-opacity="0.11" stroke-width="1.2607"/>
<line x1="-4.07715" y1="1607.22" x2="1507.5" y2="1607.22" stroke="#353336" stroke-opacity="0.11" stroke-width="1.2607"/>
<line x1="-4.07715" y1="1284.48" x2="1507.5" y2="1284.48" stroke="#353336" stroke-opacity="0.11" stroke-width="1.2607"/>
<line x1="-4.07715" y1="1768.58" x2="1507.5" y2="1768.58" stroke="#353336" stroke-opacity="0.11" stroke-width="1.2607"/>
<line x1="-4.07715" y1="2091.33" x2="1507.5" y2="2091.33" stroke="#353336" stroke-opacity="0.11" stroke-width="1.2607"/>
<line x1="-4.07715" y1="1445.85" x2="1507.5" y2="1445.85" stroke="#353336" stroke-opacity="0.11" stroke-width="1.2607"/>
<line x1="-4.07715" y1="1123.11" x2="1507.5" y2="1123.11" stroke="#353336" stroke-opacity="0.11" stroke-width="1.2607"/>
<line x1="43.1982" y1="1336.8" x2="43.1982" y2="2504.2" stroke="#353336" stroke-opacity="0.11" stroke-width="1.2607"/>
<line x1="688.679" y1="1336.8" x2="688.679" y2="2504.2" stroke="#353336" stroke-opacity="0.11" stroke-width="1.2607"/>
<line x1="365.939" y1="1336.8" x2="365.939" y2="2504.2" stroke="#353336" stroke-opacity="0.11" stroke-width="1.2607"/>
<line x1="1011.42" y1="1336.8" x2="1011.41" y2="2504.2" stroke="#353336" stroke-opacity="0.11" stroke-width="1.2607"/>
<line x1="1334.63" y1="1337" x2="1334.63" y2="2504.41" stroke="#353336" stroke-opacity="0.11" stroke-width="1.2607"/>
<line x1="204.568" y1="1336.8" x2="204.568" y2="2504.2" stroke="#353336" stroke-opacity="0.11" stroke-width="1.2607"/>
<line x1="850.045" y1="1336.8" x2="850.045" y2="2504.2" stroke="#353336" stroke-opacity="0.11" stroke-width="1.2607"/>
<line x1="527.309" y1="1336.8" x2="527.309" y2="2504.2" stroke="#353336" stroke-opacity="0.11" stroke-width="1.2607"/>
<line x1="1172.79" y1="1336.8" x2="1172.79" y2="2504.2" stroke="#353336" stroke-opacity="0.11" stroke-width="1.2607"/>
<line x1="123.885" y1="1336.8" x2="123.885" y2="2504.2" stroke="#353336" stroke-opacity="0.11" stroke-width="1.2607"/>
<line x1="769.362" y1="1336.8" x2="769.362" y2="2504.2" stroke="#353336" stroke-opacity="0.11" stroke-width="1.2607"/>
<line x1="446.621" y1="1336.8" x2="446.621" y2="2504.2" stroke="#353336" stroke-opacity="0.11" stroke-width="1.2607"/>
<line x1="1092.1" y1="1336.8" x2="1092.1" y2="2504.2" stroke="#353336" stroke-opacity="0.11" stroke-width="1.2607"/>
<line x1="1414.84" y1="1336.8" x2="1414.84" y2="2504.2" stroke="#353336" stroke-opacity="0.11" stroke-width="1.2607"/>
<line x1="285.256" y1="1336.8" x2="285.256" y2="2504.2" stroke="#353336" stroke-opacity="0.11" stroke-width="1.2607"/>
<line x1="930.732" y1="1336.8" x2="930.732" y2="2504.2" stroke="#353336" stroke-opacity="0.11" stroke-width="1.2607"/>
<line x1="607.992" y1="1336.8" x2="607.992" y2="2504.2" stroke="#353336" stroke-opacity="0.11" stroke-width="1.2607"/>
<line x1="1253.47" y1="1336.8" x2="1253.47" y2="2504.2" stroke="#353336" stroke-opacity="0.11" stroke-width="1.2607"/>
</g>
</g>
<defs>
<linearGradient id="paint0_linear_1741_11799" x1="173.861" y1="-226.464" x2="628.343" y2="15.5896" gradientUnits="userSpaceOnUse">
<stop stop-color="white"/>
<stop offset="1" stop-color="white" stop-opacity="0"/>
</linearGradient>
<radialGradient id="paint1_radial_1741_11799" cx="0" cy="0" r="1" gradientUnits="userSpaceOnUse" gradientTransform="translate(140.088 851.992) rotate(-35.3589) scale(544.171 1032.23)">
<stop stop-color="white"/>
<stop offset="1" stop-color="white" stop-opacity="0"/>
</radialGradient>
<linearGradient id="paint2_linear_1741_11799" x1="173.861" y1="1309.54" x2="628.343" y2="1551.59" gradientUnits="userSpaceOnUse">
<stop stop-color="white"/>
<stop offset="1" stop-color="white" stop-opacity="0"/>
</linearGradient>
<radialGradient id="paint3_radial_1741_11799" cx="0" cy="0" r="1" gradientUnits="userSpaceOnUse" gradientTransform="translate(140.088 2387.99) rotate(-35.3589) scale(544.171 1032.23)">
<stop stop-color="white"/>
<stop offset="1" stop-color="white" stop-opacity="0"/>
</radialGradient>
<clipPath id="clip0_1741_11799">
<rect width="1440" height="4314" fill="white"/>
</clipPath>
<clipPath id="clip1_1741_11799">
<rect width="2143" height="1646" fill="white" transform="translate(-284 -511)"/>
</clipPath>
<clipPath id="clip2_1741_11799">
<rect width="2143" height="1112" fill="white" transform="translate(-284 1025)"/>
</clipPath>
</defs>
</svg>
