<svg width="1440" height="273" viewBox="0 0 1440 273" fill="none" xmlns="http://www.w3.org/2000/svg">
<path d="M237.54 62L304.86 181.34L237.54 300H-0.799998V62H237.54ZM227 181.34L189.94 115.38H70.94V246.62H189.94L227 181.34ZM589.724 157.54V246.62L535.664 300H376.884L322.824 246.62V157.54L376.884 103.14H535.664L589.724 157.54ZM517.984 156.52H394.564V246.62H517.984V156.52ZM623.565 62.34L695.305 20.86V217.04L815.665 103.14H901.005L813.625 186.78L926.505 299.66H844.225L771.805 227.24L695.305 299.66H623.565V62.34ZM1098.07 177.6V156.52H995.727V246.62H1169.81L1116.43 300H978.047L923.987 245.6V156.52L978.047 103.14H1116.43L1169.81 156.52V225.88H1011.71L1059.99 177.6H1098.07ZM1370.76 177.6V156.52H1268.42V246.62H1442.5L1389.12 300H1250.74L1196.68 245.6V156.52L1250.74 103.14H1389.12L1442.5 156.52V225.88H1284.4L1332.68 177.6H1370.76Z" fill="#565ADD"/>
</svg>
