<svg width="128" height="26" viewBox="0 0 128 26" fill="none" xmlns="http://www.w3.org/2000/svg">
<path d="M21.43 4.5L27.37 15.03L21.43 25.5H0.4V4.5H21.43ZM20.5 15.03L17.23 9.21H6.73V20.79H17.23L20.5 15.03ZM52.5051 12.93V20.79L47.7351 25.5H33.7251L28.9551 20.79V12.93L33.7251 8.13H47.7351L52.5051 12.93ZM46.1751 12.84H35.2851V20.79H46.1751V12.84ZM55.491 4.53L61.821 0.869999V18.18L72.441 8.13H79.971L72.261 15.51L82.221 25.47H74.961L68.571 19.08L61.821 25.47H55.491V4.53ZM97.3588 14.7V12.84H88.3288V20.79H103.689L98.9788 25.5H86.7688L81.9988 20.7V12.84L86.7688 8.13H98.9788L103.689 12.84V18.96H89.7388L93.9988 14.7H97.3588ZM121.42 14.7V12.84H112.39V20.79H127.75L123.04 25.5H110.83L106.06 20.7V12.84L110.83 8.13H123.04L127.75 12.84V18.96H113.8L118.06 14.7H121.42Z" fill="#565ADD"/>
</svg>
