<svg width="128" height="25" viewBox="0 0 128 25" fill="none" xmlns="http://www.w3.org/2000/svg">
<path d="M21.43 4L27.37 14.53L21.43 25H0.4V4H21.43ZM20.5 14.53L17.23 8.71H6.73V20.29H17.23L20.5 14.53ZM52.5051 12.43V20.29L47.7351 25H33.7251L28.9551 20.29V12.43L33.7251 7.63H47.7351L52.5051 12.43ZM46.1751 12.34H35.2851V20.29H46.1751V12.34ZM55.491 4.03L61.821 0.369999V17.68L72.441 7.63H79.971L72.261 15.01L82.221 24.97H74.961L68.571 18.58L61.821 24.97H55.491V4.03ZM97.3588 14.2V12.34H88.3288V20.29H103.689L98.9788 25H86.7688L81.9988 20.2V12.34L86.7688 7.63H98.9788L103.689 12.34V18.46H89.7388L93.9988 14.2H97.3588ZM121.42 14.2V12.34H112.39V20.29H127.75L123.04 25H110.83L106.06 20.2V12.34L110.83 7.63H123.04L127.75 12.34V18.46H113.8L118.06 14.2H121.42Z" fill="white"/>
</svg>
